<?xml version="1.0" encoding="utf-8" ?>
<svg baseProfile="full" height="100%" version="1.1" width="100%" xmlns="http://www.w3.org/2000/svg" xmlns:ev="http://www.w3.org/2001/xml-events" xmlns:xlink="http://www.w3.org/1999/xlink"><defs /><g id="text" stroke="black"><text style="font-size:19.886363636363633" x="3cm" y="4cm">你好！</text><text style="font-size:19.886363636363633" x="3cm" y="8cm">Hello World!</text><text style="font-size:19.886363636363633" x="12.04cm" y="4cm">Hello World!</text><text style="font-size:19.886363636363633" x="12.04cm" y="8cm">Hello World!</text></g><g fill-opacity="0" id="shapes"><rect height="2cm" rx="10" ry="10" stroke="blue" stroke-width="3" width="3.78cm" x="2cm" y="3cm" /><rect height="2cm" rx="10" ry="10" stroke="blue" stroke-width="3" width="5.04cm" x="2cm" y="7cm" /><rect height="2cm" rx="10" ry="10" stroke="blue" stroke-width="3" width="5.04cm" x="11.04cm" y="3cm" /><rect height="2cm" rx="10" ry="10" stroke="blue" stroke-width="3" width="5.04cm" x="11.04cm" y="7cm" /></g><g id="routeV" stroke="black"><line x1="3.8899999999999997cm" x2="3.8899999999999997cm" y1="5cm" y2="6.180691069669539cm" /><line x1="9.44379326127181cm" x2="9.44379326127181cm" y1="6.180691069669539cm" y2="2.6373764604680865cm" /><line x1="13.559999999999999cm" x2="13.559999999999999cm" y1="2.6373764604680865cm" y2="3cm" /><line x1="3.8899999999999997cm" x2="3.8899999999999997cm" y1="5cm" y2="7cm" /><line x1="4.52cm" x2="4.52cm" y1="9cm" y2="10.445575755970932cm" /><line x1="10.267279653905469cm" x2="10.267279653905469cm" y1="10.445575755970932cm" y2="2.183976894537954cm" /><line x1="13.559999999999999cm" x2="13.559999999999999cm" y1="2.183976894537954cm" y2="3cm" /><line x1="4.52cm" x2="4.52cm" y1="9cm" y2="10.323238799420798cm" /><line x1="0.5cm" x2="0.5cm" y1="10.323238799420798cm" y2="2.5260663259993783cm" /><line x1="3.8899999999999997cm" x2="3.8899999999999997cm" y1="2.5260663259993783cm" y2="3cm" /><line x1="13.559999999999999cm" x2="13.559999999999999cm" y1="9cm" y2="9.808080444138014cm" /><line x1="10.247461344260435cm" x2="10.247461344260435cm" y1="9.808080444138014cm" y2="1.6904564457598823cm" /><line x1="3.8899999999999997cm" x2="3.8899999999999997cm" y1="1.6904564457598823cm" y2="3cm" /><line x1="13.559999999999999cm" x2="13.559999999999999cm" y1="9cm" y2="9.695744903912278cm" /><line x1="8.848391850483374cm" x2="8.848391850483374cm" y1="9.695744903912278cm" y2="1.3963907532092306cm" /><line x1="13.559999999999999cm" x2="13.559999999999999cm" y1="1.3963907532092306cm" y2="3cm" /></g><g id="routeH" stroke="black"><line x1="3.8899999999999997cm" x2="9.44379326127181cm" y1="6.180691069669539cm" y2="6.180691069669539cm" /><line x1="9.44379326127181cm" x2="13.559999999999999cm" y1="2.6373764604680865cm" y2="2.6373764604680865cm" /><line x1="4.52cm" x2="10.267279653905469cm" y1="10.445575755970932cm" y2="10.445575755970932cm" /><line x1="10.267279653905469cm" x2="13.559999999999999cm" y1="2.183976894537954cm" y2="2.183976894537954cm" /><line x1="4.52cm" x2="0.5cm" y1="10.323238799420798cm" y2="10.323238799420798cm" /><line x1="0.5cm" x2="3.8899999999999997cm" y1="2.5260663259993783cm" y2="2.5260663259993783cm" /><line x1="13.559999999999999cm" x2="10.247461344260435cm" y1="9.808080444138014cm" y2="9.808080444138014cm" /><line x1="10.247461344260435cm" x2="3.8899999999999997cm" y1="1.6904564457598823cm" y2="1.6904564457598823cm" /><line x1="13.559999999999999cm" x2="8.848391850483374cm" y1="9.695744903912278cm" y2="9.695744903912278cm" /><line x1="8.848391850483374cm" x2="13.559999999999999cm" y1="1.3963907532092306cm" y2="1.3963907532092306cm" /></g></svg>